<mxfile host="app.diagrams.net" modified="2023-06-20T08:06:11.697Z" agent="Mozilla/5.0 (Windows NT 10.0; Win64; x64) AppleWebKit/537.36 (KHTML, like Gecko) Chrome/114.0.0.0 Safari/537.36" version="21.5.0" etag="uOedXDHpKEcd4MhYKp4I" type="github">
  <diagram name="PÃ¡gina-1" id="bp1xQ1stWec8ODJ8iANR">
    <mxGraphModel>
      <root>
        <mxCell id="0" />
        <mxCell id="1" parent="0" />
      </root>
    </mxGraphModel>
  </diagram>
</mxfile>
